<mxfile host="app.diagrams.net" agent="Mozilla/5.0 (Windows NT 10.0; Win64; x64) AppleWebKit/537.36 (KHTML, like Gecko) Chrome/136.0.0.0 Safari/537.36" version="26.2.14">
  <diagram name="Page-1" id="lpGjizRIBNB4KOwUtDhZ">
    <mxGraphModel dx="1426" dy="777" grid="1" gridSize="10" guides="1" tooltips="1" connect="1" arrows="1" fold="1" page="1" pageScale="1" pageWidth="850" pageHeight="1100" math="0" shadow="0">
      <root>
        <mxCell id="0" />
        <mxCell id="1" parent="0" />
        <mxCell id="pDLpb-r-_teEG-7h8mRC-50" value="" style="rounded=1;whiteSpace=wrap;html=1;fillColor=none;strokeColor=default;dashed=1;dashPattern=8 8;strokeWidth=1;" parent="1" vertex="1">
          <mxGeometry x="20" y="200" width="860" height="470" as="geometry" />
        </mxCell>
        <mxCell id="pDLpb-r-_teEG-7h8mRC-169" style="edgeStyle=elbowEdgeStyle;rounded=0;orthogonalLoop=1;jettySize=auto;elbow=vertical;html=1;fillColor=#d5e8d4;gradientColor=#97d077;strokeColor=#82b366;strokeWidth=3;endArrow=none;startFill=0;" parent="1" source="pDLpb-r-_teEG-7h8mRC-13" edge="1">
          <mxGeometry relative="1" as="geometry">
            <mxPoint x="210" y="420" as="targetPoint" />
          </mxGeometry>
        </mxCell>
        <mxCell id="pDLpb-r-_teEG-7h8mRC-13" value="" style="rounded=1;whiteSpace=wrap;html=1;dashed=1;fillColor=#fad9d5;strokeColor=#ae4132;strokeWidth=2;" parent="1" vertex="1">
          <mxGeometry x="60" y="505" width="300" height="135" as="geometry" />
        </mxCell>
        <mxCell id="pDLpb-r-_teEG-7h8mRC-93" value="" style="rounded=1;whiteSpace=wrap;html=1;fillColor=none;strokeColor=default;dashed=1;dashPattern=8 8;strokeWidth=1;" parent="1" vertex="1">
          <mxGeometry x="900" y="200" width="640" height="470" as="geometry" />
        </mxCell>
        <mxCell id="pDLpb-r-_teEG-7h8mRC-33" style="edgeStyle=elbowEdgeStyle;rounded=0;orthogonalLoop=1;jettySize=auto;elbow=vertical;html=1;exitX=0.75;exitY=0;exitDx=0;exitDy=0;entryX=0.25;entryY=1;entryDx=0;entryDy=0;endArrow=none;startFill=0;strokeWidth=3;fillColor=#fad9d5;strokeColor=#ae4132;" parent="1" source="pDLpb-r-_teEG-7h8mRC-13" target="pDLpb-r-_teEG-7h8mRC-3" edge="1">
          <mxGeometry relative="1" as="geometry">
            <Array as="points">
              <mxPoint x="400" y="440" />
            </Array>
          </mxGeometry>
        </mxCell>
        <mxCell id="pDLpb-r-_teEG-7h8mRC-1" value="UDM Pro WIL" style="rounded=1;whiteSpace=wrap;html=1;fillColor=#b1ddf0;strokeColor=#10739e;strokeWidth=3;" parent="1" vertex="1">
          <mxGeometry x="320" y="230" width="120" height="60" as="geometry" />
        </mxCell>
        <mxCell id="pDLpb-r-_teEG-7h8mRC-2" value="Aggregation" style="rounded=1;whiteSpace=wrap;html=1;fillColor=#b1ddf0;strokeColor=#10739e;strokeWidth=3;" parent="1" vertex="1">
          <mxGeometry x="150" y="360" width="120" height="60" as="geometry" />
        </mxCell>
        <mxCell id="pDLpb-r-_teEG-7h8mRC-25" style="edgeStyle=elbowEdgeStyle;rounded=0;orthogonalLoop=1;jettySize=auto;elbow=vertical;html=1;entryX=0;entryY=0.5;entryDx=0;entryDy=0;endArrow=none;startFill=0;strokeWidth=3;fillColor=#b1ddf0;strokeColor=#10739e;" parent="1" source="pDLpb-r-_teEG-7h8mRC-3" target="pDLpb-r-_teEG-7h8mRC-4" edge="1">
          <mxGeometry relative="1" as="geometry" />
        </mxCell>
        <mxCell id="pDLpb-r-_teEG-7h8mRC-119" style="edgeStyle=elbowEdgeStyle;rounded=0;orthogonalLoop=1;jettySize=auto;elbow=vertical;html=1;entryX=0.5;entryY=1;entryDx=0;entryDy=0;endArrow=none;startFill=0;strokeWidth=3;fillColor=#b1ddf0;strokeColor=#10739e;" parent="1" source="pDLpb-r-_teEG-7h8mRC-3" target="pDLpb-r-_teEG-7h8mRC-1" edge="1">
          <mxGeometry relative="1" as="geometry" />
        </mxCell>
        <mxCell id="pDLpb-r-_teEG-7h8mRC-3" value="POE" style="rounded=1;whiteSpace=wrap;html=1;fillColor=#b1ddf0;strokeColor=#10739e;strokeWidth=3;" parent="1" vertex="1">
          <mxGeometry x="480" y="360" width="120" height="60" as="geometry" />
        </mxCell>
        <mxCell id="pDLpb-r-_teEG-7h8mRC-4" value="Flex" style="rounded=1;whiteSpace=wrap;html=1;fillColor=#b1ddf0;strokeColor=#10739e;strokeWidth=3;" parent="1" vertex="1">
          <mxGeometry x="720" y="360" width="120" height="60" as="geometry" />
        </mxCell>
        <mxCell id="pDLpb-r-_teEG-7h8mRC-104" style="edgeStyle=elbowEdgeStyle;rounded=0;orthogonalLoop=1;jettySize=auto;elbow=vertical;html=1;endArrow=none;startFill=0;strokeColor=#ae4132;strokeWidth=3;fillColor=#fad9d5;" parent="1" source="pDLpb-r-_teEG-7h8mRC-14" edge="1">
          <mxGeometry relative="1" as="geometry">
            <mxPoint x="310" y="620" as="targetPoint" />
          </mxGeometry>
        </mxCell>
        <mxCell id="pDLpb-r-_teEG-7h8mRC-109" style="edgeStyle=elbowEdgeStyle;rounded=0;orthogonalLoop=1;jettySize=auto;elbow=vertical;html=1;exitX=0.25;exitY=1;exitDx=0;exitDy=0;endArrow=none;startFill=0;strokeColor=#ae4132;strokeWidth=3;fillColor=#fad9d5;" parent="1" source="pDLpb-r-_teEG-7h8mRC-14" edge="1">
          <mxGeometry relative="1" as="geometry">
            <mxPoint x="295" y="600" as="targetPoint" />
          </mxGeometry>
        </mxCell>
        <mxCell id="pDLpb-r-_teEG-7h8mRC-14" value="PVE" style="rounded=1;whiteSpace=wrap;html=1;fillColor=#fad9d5;strokeColor=#ae4132;strokeWidth=3;" parent="1" vertex="1">
          <mxGeometry x="280" y="520" width="60" height="60" as="geometry" />
        </mxCell>
        <mxCell id="pDLpb-r-_teEG-7h8mRC-110" style="edgeStyle=elbowEdgeStyle;rounded=0;orthogonalLoop=1;jettySize=auto;elbow=vertical;html=1;exitX=0.75;exitY=1;exitDx=0;exitDy=0;endArrow=none;startFill=0;strokeColor=#ae4132;strokeWidth=3;fillColor=#fad9d5;" parent="1" edge="1">
          <mxGeometry relative="1" as="geometry">
            <mxPoint x="220.00238095238075" y="600" as="targetPoint" />
            <mxPoint x="220.05000000000007" y="580" as="sourcePoint" />
          </mxGeometry>
        </mxCell>
        <mxCell id="pDLpb-r-_teEG-7h8mRC-111" style="edgeStyle=elbowEdgeStyle;rounded=0;orthogonalLoop=1;jettySize=auto;elbow=vertical;html=1;exitX=0.25;exitY=1;exitDx=0;exitDy=0;endArrow=none;startFill=0;strokeColor=#ae4132;strokeWidth=3;fillColor=#fad9d5;" parent="1" edge="1">
          <mxGeometry relative="1" as="geometry">
            <mxPoint x="200" y="600" as="targetPoint" />
            <mxPoint x="200.00000000000006" y="580" as="sourcePoint" />
          </mxGeometry>
        </mxCell>
        <mxCell id="pDLpb-r-_teEG-7h8mRC-15" value="PVE" style="rounded=1;whiteSpace=wrap;html=1;fillColor=#fad9d5;strokeColor=#ae4132;strokeWidth=3;" parent="1" vertex="1">
          <mxGeometry x="180" y="520" width="60" height="60" as="geometry" />
        </mxCell>
        <mxCell id="pDLpb-r-_teEG-7h8mRC-102" style="edgeStyle=elbowEdgeStyle;rounded=0;orthogonalLoop=1;jettySize=auto;elbow=vertical;html=1;endArrow=none;startFill=0;strokeColor=#ae4132;strokeWidth=3;fillColor=#fad9d5;" parent="1" source="pDLpb-r-_teEG-7h8mRC-16" edge="1">
          <mxGeometry relative="1" as="geometry">
            <mxPoint x="110" y="620" as="targetPoint" />
          </mxGeometry>
        </mxCell>
        <mxCell id="pDLpb-r-_teEG-7h8mRC-108" style="edgeStyle=elbowEdgeStyle;rounded=0;orthogonalLoop=1;jettySize=auto;elbow=vertical;html=1;exitX=0.75;exitY=1;exitDx=0;exitDy=0;endArrow=none;startFill=0;strokeColor=#ae4132;strokeWidth=3;fillColor=#fad9d5;" parent="1" source="pDLpb-r-_teEG-7h8mRC-16" edge="1">
          <mxGeometry relative="1" as="geometry">
            <mxPoint x="124.95238095238074" y="600" as="targetPoint" />
          </mxGeometry>
        </mxCell>
        <mxCell id="pDLpb-r-_teEG-7h8mRC-16" value="PVE" style="rounded=1;whiteSpace=wrap;html=1;fillColor=#fad9d5;strokeColor=#ae4132;strokeWidth=3;" parent="1" vertex="1">
          <mxGeometry x="80" y="520" width="60" height="60" as="geometry" />
        </mxCell>
        <mxCell id="pDLpb-r-_teEG-7h8mRC-114" style="edgeStyle=elbowEdgeStyle;rounded=0;orthogonalLoop=1;jettySize=auto;elbow=vertical;html=1;exitX=0.75;exitY=0;exitDx=0;exitDy=0;entryX=0.5;entryY=1;entryDx=0;entryDy=0;strokeWidth=3;endArrow=none;startFill=0;strokeColor=#10739e;fillColor=#b1ddf0;" parent="1" source="pDLpb-r-_teEG-7h8mRC-29" target="pDLpb-r-_teEG-7h8mRC-3" edge="1">
          <mxGeometry relative="1" as="geometry" />
        </mxCell>
        <mxCell id="pDLpb-r-_teEG-7h8mRC-168" style="edgeStyle=elbowEdgeStyle;rounded=0;orthogonalLoop=1;jettySize=auto;elbow=vertical;html=1;strokeWidth=3;endArrow=none;startFill=0;fillColor=#d5e8d4;gradientColor=#97d077;strokeColor=#82b366;jumpStyle=arc;" parent="1" source="pDLpb-r-_teEG-7h8mRC-29" edge="1">
          <mxGeometry relative="1" as="geometry">
            <mxPoint x="210" y="420" as="targetPoint" />
            <Array as="points">
              <mxPoint x="300" y="470" />
            </Array>
          </mxGeometry>
        </mxCell>
        <mxCell id="pDLpb-r-_teEG-7h8mRC-29" value="NAS" style="rounded=1;whiteSpace=wrap;html=1;fillColor=#d5e8d4;strokeColor=#82b366;strokeWidth=3;" parent="1" vertex="1">
          <mxGeometry x="380" y="555" width="60" height="60" as="geometry" />
        </mxCell>
        <mxCell id="pDLpb-r-_teEG-7h8mRC-39" style="edgeStyle=elbowEdgeStyle;rounded=0;orthogonalLoop=1;jettySize=auto;elbow=vertical;html=1;entryX=0.25;entryY=1;entryDx=0;entryDy=0;strokeWidth=3;fillColor=#e6d0de;gradientColor=#d5739d;strokeColor=#996185;endArrow=none;startFill=0;" parent="1" source="pDLpb-r-_teEG-7h8mRC-34" target="pDLpb-r-_teEG-7h8mRC-4" edge="1">
          <mxGeometry relative="1" as="geometry" />
        </mxCell>
        <mxCell id="pDLpb-r-_teEG-7h8mRC-34" value="AP" style="rounded=1;whiteSpace=wrap;html=1;fillColor=#e6d0de;gradientColor=none;strokeColor=#996185;strokeWidth=3;" parent="1" vertex="1">
          <mxGeometry x="710" y="470" width="60" height="60" as="geometry" />
        </mxCell>
        <mxCell id="pDLpb-r-_teEG-7h8mRC-120" style="edgeStyle=elbowEdgeStyle;rounded=0;orthogonalLoop=1;jettySize=auto;elbow=vertical;html=1;entryX=0.75;entryY=1;entryDx=0;entryDy=0;endArrow=none;startFill=0;strokeWidth=3;strokeColor=#d6b656;fillColor=#fff2cc;gradientColor=#ffd966;" parent="1" source="pDLpb-r-_teEG-7h8mRC-35" target="pDLpb-r-_teEG-7h8mRC-3" edge="1">
          <mxGeometry relative="1" as="geometry" />
        </mxCell>
        <mxCell id="pDLpb-r-_teEG-7h8mRC-35" value="Docker" style="rounded=1;whiteSpace=wrap;html=1;fillColor=#fff2cc;strokeColor=#d6b656;gradientColor=none;strokeWidth=3;" parent="1" vertex="1">
          <mxGeometry x="630" y="517.5" width="60" height="100" as="geometry" />
        </mxCell>
        <mxCell id="pDLpb-r-_teEG-7h8mRC-40" style="edgeStyle=elbowEdgeStyle;rounded=0;orthogonalLoop=1;jettySize=auto;elbow=vertical;html=1;entryX=0.75;entryY=1;entryDx=0;entryDy=0;endArrow=none;startFill=0;strokeWidth=3;fillColor=#e6d0de;gradientColor=#d5739d;strokeColor=#996185;" parent="1" source="pDLpb-r-_teEG-7h8mRC-36" target="pDLpb-r-_teEG-7h8mRC-4" edge="1">
          <mxGeometry relative="1" as="geometry" />
        </mxCell>
        <mxCell id="pDLpb-r-_teEG-7h8mRC-36" value="Wired" style="rounded=1;whiteSpace=wrap;html=1;fillColor=#e6d0de;gradientColor=none;strokeColor=#996185;strokeWidth=3;" parent="1" vertex="1">
          <mxGeometry x="790" y="470" width="60" height="60" as="geometry" />
        </mxCell>
        <mxCell id="pDLpb-r-_teEG-7h8mRC-115" style="edgeStyle=elbowEdgeStyle;rounded=0;orthogonalLoop=1;jettySize=auto;elbow=vertical;html=1;entryX=0.5;entryY=1;entryDx=0;entryDy=0;strokeWidth=3;endArrow=none;startFill=0;strokeColor=#10739e;fillColor=#b1ddf0;" parent="1" source="pDLpb-r-_teEG-7h8mRC-41" target="pDLpb-r-_teEG-7h8mRC-3" edge="1">
          <mxGeometry relative="1" as="geometry" />
        </mxCell>
        <mxCell id="pDLpb-r-_teEG-7h8mRC-41" value="DNS-02" style="rounded=1;whiteSpace=wrap;html=1;rotation=-90;fillColor=#b1ddf0;strokeColor=#10739e;strokeWidth=3;" parent="1" vertex="1">
          <mxGeometry x="460" y="555" width="105" height="30" as="geometry" />
        </mxCell>
        <mxCell id="pDLpb-r-_teEG-7h8mRC-116" style="edgeStyle=elbowEdgeStyle;rounded=0;orthogonalLoop=1;jettySize=auto;elbow=vertical;html=1;entryX=0.5;entryY=1;entryDx=0;entryDy=0;strokeWidth=3;endArrow=none;startFill=0;strokeColor=#10739e;fillColor=#b1ddf0;" parent="1" source="pDLpb-r-_teEG-7h8mRC-42" target="pDLpb-r-_teEG-7h8mRC-3" edge="1">
          <mxGeometry relative="1" as="geometry" />
        </mxCell>
        <mxCell id="pDLpb-r-_teEG-7h8mRC-42" value="DNS-01" style="rounded=1;whiteSpace=wrap;html=1;rotation=-90;fillColor=#b1ddf0;strokeColor=#10739e;strokeWidth=3;" parent="1" vertex="1">
          <mxGeometry x="420" y="555" width="105" height="30" as="geometry" />
        </mxCell>
        <mxCell id="pDLpb-r-_teEG-7h8mRC-117" style="edgeStyle=elbowEdgeStyle;rounded=0;orthogonalLoop=1;jettySize=auto;elbow=vertical;html=1;strokeWidth=3;endArrow=none;startFill=0;strokeColor=#10739e;fillColor=#b1ddf0;" parent="1" source="pDLpb-r-_teEG-7h8mRC-45" edge="1">
          <mxGeometry relative="1" as="geometry">
            <mxPoint x="540" y="440" as="targetPoint" />
          </mxGeometry>
        </mxCell>
        <mxCell id="pDLpb-r-_teEG-7h8mRC-45" value="NTP" style="rounded=1;whiteSpace=wrap;html=1;rotation=-90;fillColor=#b1ddf0;strokeColor=#10739e;strokeWidth=3;" parent="1" vertex="1">
          <mxGeometry x="520" y="535" width="107.5" height="65" as="geometry" />
        </mxCell>
        <mxCell id="pDLpb-r-_teEG-7h8mRC-52" style="edgeStyle=elbowEdgeStyle;rounded=0;orthogonalLoop=1;jettySize=auto;elbow=vertical;html=1;exitX=1;exitY=0.5;exitDx=0;exitDy=0;strokeWidth=3;" parent="1" source="pDLpb-r-_teEG-7h8mRC-50" target="pDLpb-r-_teEG-7h8mRC-50" edge="1">
          <mxGeometry relative="1" as="geometry" />
        </mxCell>
        <mxCell id="pDLpb-r-_teEG-7h8mRC-54" value="UDM Pro NYC" style="rounded=1;whiteSpace=wrap;html=1;fillColor=#b1ddf0;strokeColor=#10739e;strokeWidth=3;" parent="1" vertex="1">
          <mxGeometry x="1210" y="230" width="120" height="60" as="geometry" />
        </mxCell>
        <mxCell id="pDLpb-r-_teEG-7h8mRC-58" style="edgeStyle=elbowEdgeStyle;rounded=0;orthogonalLoop=1;jettySize=auto;elbow=vertical;html=1;entryX=0;entryY=0.5;entryDx=0;entryDy=0;endArrow=none;startFill=0;fillColor=#b1ddf0;strokeColor=#10739e;strokeWidth=3;" parent="1" source="pDLpb-r-_teEG-7h8mRC-55" target="pDLpb-r-_teEG-7h8mRC-56" edge="1">
          <mxGeometry relative="1" as="geometry" />
        </mxCell>
        <mxCell id="pDLpb-r-_teEG-7h8mRC-123" style="edgeStyle=elbowEdgeStyle;rounded=0;orthogonalLoop=1;jettySize=auto;elbow=vertical;html=1;exitX=0.5;exitY=1;exitDx=0;exitDy=0;entryX=1;entryY=0.25;entryDx=0;entryDy=0;endArrow=none;startFill=0;strokeWidth=3;fillColor=#ffcd28;gradientColor=#ffa500;strokeColor=#d79b00;" parent="1" source="pDLpb-r-_teEG-7h8mRC-55" target="pDLpb-r-_teEG-7h8mRC-64" edge="1">
          <mxGeometry relative="1" as="geometry">
            <Array as="points">
              <mxPoint x="1000" y="500" />
            </Array>
          </mxGeometry>
        </mxCell>
        <mxCell id="pDLpb-r-_teEG-7h8mRC-55" value="PTP" style="rounded=1;whiteSpace=wrap;html=1;fillColor=#b1ddf0;strokeColor=#10739e;strokeWidth=3;" parent="1" vertex="1">
          <mxGeometry x="940" y="360" width="120" height="60" as="geometry" />
        </mxCell>
        <mxCell id="pDLpb-r-_teEG-7h8mRC-87" style="edgeStyle=elbowEdgeStyle;rounded=0;orthogonalLoop=1;jettySize=auto;elbow=vertical;html=1;endArrow=none;startFill=0;fillColor=#b1ddf0;strokeColor=#10739e;strokeWidth=3;" parent="1" source="pDLpb-r-_teEG-7h8mRC-56" target="pDLpb-r-_teEG-7h8mRC-54" edge="1">
          <mxGeometry relative="1" as="geometry" />
        </mxCell>
        <mxCell id="pDLpb-r-_teEG-7h8mRC-56" value="POE" style="rounded=1;whiteSpace=wrap;html=1;fillColor=#b1ddf0;strokeColor=#10739e;strokeWidth=3;" parent="1" vertex="1">
          <mxGeometry x="1210" y="360" width="120" height="60" as="geometry" />
        </mxCell>
        <mxCell id="pDLpb-r-_teEG-7h8mRC-86" style="edgeStyle=elbowEdgeStyle;rounded=0;orthogonalLoop=1;jettySize=auto;elbow=vertical;html=1;entryX=0.5;entryY=1;entryDx=0;entryDy=0;endArrow=none;startFill=0;strokeColor=#CC0000;strokeWidth=3;" parent="1" source="pDLpb-r-_teEG-7h8mRC-59" target="pDLpb-r-_teEG-7h8mRC-56" edge="1">
          <mxGeometry relative="1" as="geometry" />
        </mxCell>
        <mxCell id="pDLpb-r-_teEG-7h8mRC-59" value="" style="rounded=1;whiteSpace=wrap;html=1;dashed=1;fillColor=#f8cecc;gradientColor=none;strokeColor=#b85450;strokeWidth=2;" parent="1" vertex="1">
          <mxGeometry x="1290" y="505" width="220" height="80" as="geometry" />
        </mxCell>
        <mxCell id="pDLpb-r-_teEG-7h8mRC-60" value="PVE" style="rounded=1;whiteSpace=wrap;html=1;fillColor=#f8cecc;gradientColor=none;strokeColor=#b85450;strokeWidth=3;" parent="1" vertex="1">
          <mxGeometry x="1440" y="515" width="60" height="60" as="geometry" />
        </mxCell>
        <mxCell id="pDLpb-r-_teEG-7h8mRC-61" value="PVE" style="rounded=1;whiteSpace=wrap;html=1;fillColor=#f8cecc;gradientColor=none;strokeColor=#b85450;strokeWidth=3;" parent="1" vertex="1">
          <mxGeometry x="1370" y="515" width="60" height="60" as="geometry" />
        </mxCell>
        <mxCell id="pDLpb-r-_teEG-7h8mRC-62" value="PVE" style="rounded=1;whiteSpace=wrap;html=1;fillColor=#f8cecc;gradientColor=none;strokeColor=#b85450;strokeWidth=3;" parent="1" vertex="1">
          <mxGeometry x="1300" y="515" width="60" height="60" as="geometry" />
        </mxCell>
        <mxCell id="pDLpb-r-_teEG-7h8mRC-84" style="edgeStyle=elbowEdgeStyle;rounded=0;orthogonalLoop=1;jettySize=auto;elbow=vertical;html=1;entryX=0.25;entryY=1;entryDx=0;entryDy=0;endArrow=none;startFill=0;strokeWidth=3;fillColor=#b1ddf0;strokeColor=#10739e;" parent="1" source="pDLpb-r-_teEG-7h8mRC-64" target="pDLpb-r-_teEG-7h8mRC-56" edge="1">
          <mxGeometry relative="1" as="geometry" />
        </mxCell>
        <mxCell id="pDLpb-r-_teEG-7h8mRC-64" value="GM" style="rounded=1;whiteSpace=wrap;html=1;rotation=-90;fillColor=#ffcc99;strokeColor=#FFB570;strokeWidth=3;" parent="1" vertex="1">
          <mxGeometry x="990" y="545" width="107.5" height="65" as="geometry" />
        </mxCell>
        <mxCell id="pDLpb-r-_teEG-7h8mRC-74" style="edgeStyle=elbowEdgeStyle;rounded=0;orthogonalLoop=1;jettySize=auto;elbow=vertical;html=1;entryX=0.5;entryY=1;entryDx=0;entryDy=0;endArrow=none;startFill=0;strokeWidth=3;fillColor=#ffcd28;gradientColor=#ffa500;strokeColor=#d79b00;" parent="1" source="pDLpb-r-_teEG-7h8mRC-65" target="pDLpb-r-_teEG-7h8mRC-55" edge="1">
          <mxGeometry relative="1" as="geometry">
            <Array as="points">
              <mxPoint x="990" y="500" />
            </Array>
          </mxGeometry>
        </mxCell>
        <mxCell id="pDLpb-r-_teEG-7h8mRC-65" value="client" style="rounded=1;whiteSpace=wrap;html=1;rotation=-90;fillColor=#ffcc99;strokeColor=#FFB570;strokeWidth=3;" parent="1" vertex="1">
          <mxGeometry x="930" y="567.5" width="105" height="30" as="geometry" />
        </mxCell>
        <mxCell id="pDLpb-r-_teEG-7h8mRC-76" style="edgeStyle=elbowEdgeStyle;rounded=0;orthogonalLoop=1;jettySize=auto;elbow=vertical;html=1;entryX=0.25;entryY=1;entryDx=0;entryDy=0;endArrow=none;startFill=0;strokeWidth=3;fillColor=#b1ddf0;strokeColor=#10739e;" parent="1" source="pDLpb-r-_teEG-7h8mRC-66" target="pDLpb-r-_teEG-7h8mRC-56" edge="1">
          <mxGeometry relative="1" as="geometry" />
        </mxCell>
        <mxCell id="pDLpb-r-_teEG-7h8mRC-66" value="DNS-01" style="rounded=1;whiteSpace=wrap;html=1;rotation=-90;fillColor=#b1ddf0;strokeColor=#10739e;strokeWidth=3;" parent="1" vertex="1">
          <mxGeometry x="1070" y="545" width="105" height="30" as="geometry" />
        </mxCell>
        <mxCell id="pDLpb-r-_teEG-7h8mRC-73" style="edgeStyle=elbowEdgeStyle;rounded=0;orthogonalLoop=1;jettySize=auto;elbow=vertical;html=1;entryX=0.5;entryY=1;entryDx=0;entryDy=0;endArrow=none;startFill=0;strokeWidth=3;fillColor=#ffcd28;gradientColor=#ffa500;strokeColor=#d79b00;" parent="1" source="pDLpb-r-_teEG-7h8mRC-68" target="pDLpb-r-_teEG-7h8mRC-55" edge="1">
          <mxGeometry relative="1" as="geometry">
            <Array as="points">
              <mxPoint x="970" y="500" />
            </Array>
          </mxGeometry>
        </mxCell>
        <mxCell id="pDLpb-r-_teEG-7h8mRC-68" value="Client" style="rounded=1;whiteSpace=wrap;html=1;rotation=-90;fillColor=#ffcc99;strokeColor=#FFB570;strokeWidth=3;" parent="1" vertex="1">
          <mxGeometry x="890" y="567.5" width="105" height="30" as="geometry" />
        </mxCell>
        <mxCell id="pDLpb-r-_teEG-7h8mRC-77" style="edgeStyle=elbowEdgeStyle;rounded=0;orthogonalLoop=1;jettySize=auto;elbow=vertical;html=1;entryX=0.25;entryY=1;entryDx=0;entryDy=0;endArrow=none;startFill=0;strokeWidth=3;fillColor=#b1ddf0;strokeColor=#10739e;" parent="1" source="pDLpb-r-_teEG-7h8mRC-69" target="pDLpb-r-_teEG-7h8mRC-56" edge="1">
          <mxGeometry relative="1" as="geometry" />
        </mxCell>
        <mxCell id="pDLpb-r-_teEG-7h8mRC-69" value="DNS-01" style="rounded=1;whiteSpace=wrap;html=1;rotation=-90;fillColor=#b1ddf0;strokeColor=#10739e;strokeWidth=3;" parent="1" vertex="1">
          <mxGeometry x="1110" y="545" width="105" height="30" as="geometry" />
        </mxCell>
        <mxCell id="pDLpb-r-_teEG-7h8mRC-133" style="edgeStyle=elbowEdgeStyle;rounded=0;orthogonalLoop=1;jettySize=auto;elbow=vertical;html=1;exitX=0;exitY=0.5;exitDx=0;exitDy=0;entryX=1;entryY=0.25;entryDx=0;entryDy=0;fillColor=#e6d0de;strokeColor=#996185;strokeWidth=3;endArrow=none;startFill=0;gradientColor=#d5739d;" parent="1" source="pDLpb-r-_teEG-7h8mRC-88" target="pDLpb-r-_teEG-7h8mRC-56" edge="1">
          <mxGeometry relative="1" as="geometry" />
        </mxCell>
        <mxCell id="pDLpb-r-_teEG-7h8mRC-88" value="Wired" style="rounded=1;whiteSpace=wrap;html=1;strokeWidth=3;fillColor=#e6d0de;gradientColor=none;strokeColor=#996185;" parent="1" vertex="1">
          <mxGeometry x="1440" y="320" width="60" height="60" as="geometry" />
        </mxCell>
        <mxCell id="pDLpb-r-_teEG-7h8mRC-134" style="edgeStyle=elbowEdgeStyle;rounded=0;orthogonalLoop=1;jettySize=auto;elbow=vertical;html=1;exitX=0;exitY=0.5;exitDx=0;exitDy=0;entryX=1;entryY=0.5;entryDx=0;entryDy=0;fillColor=#e6d0de;strokeColor=#996185;strokeWidth=3;endArrow=none;startFill=0;gradientColor=#d5739d;" parent="1" source="pDLpb-r-_teEG-7h8mRC-89" target="pDLpb-r-_teEG-7h8mRC-56" edge="1">
          <mxGeometry relative="1" as="geometry" />
        </mxCell>
        <mxCell id="pDLpb-r-_teEG-7h8mRC-89" value="AP" style="rounded=1;whiteSpace=wrap;html=1;strokeWidth=3;fillColor=#e6d0de;gradientColor=none;strokeColor=#996185;" parent="1" vertex="1">
          <mxGeometry x="1440" y="400" width="60" height="60" as="geometry" />
        </mxCell>
        <mxCell id="pDLpb-r-_teEG-7h8mRC-94" value="WAN" style="ellipse;shape=cloud;whiteSpace=wrap;html=1;strokeWidth=3;" parent="1" vertex="1">
          <mxGeometry x="830" y="40" width="120" height="80" as="geometry" />
        </mxCell>
        <mxCell id="pDLpb-r-_teEG-7h8mRC-95" style="edgeStyle=elbowEdgeStyle;rounded=0;orthogonalLoop=1;jettySize=auto;elbow=vertical;html=1;entryX=0.55;entryY=0.95;entryDx=0;entryDy=0;entryPerimeter=0;endArrow=none;startFill=0;strokeWidth=3;" parent="1" source="pDLpb-r-_teEG-7h8mRC-1" target="pDLpb-r-_teEG-7h8mRC-94" edge="1">
          <mxGeometry relative="1" as="geometry" />
        </mxCell>
        <mxCell id="pDLpb-r-_teEG-7h8mRC-97" style="edgeStyle=elbowEdgeStyle;rounded=0;orthogonalLoop=1;jettySize=auto;elbow=vertical;html=1;entryX=0.55;entryY=0.95;entryDx=0;entryDy=0;entryPerimeter=0;endArrow=none;startFill=0;strokeWidth=3;" parent="1" source="pDLpb-r-_teEG-7h8mRC-54" target="pDLpb-r-_teEG-7h8mRC-94" edge="1">
          <mxGeometry relative="1" as="geometry" />
        </mxCell>
        <mxCell id="pDLpb-r-_teEG-7h8mRC-101" value="" style="endArrow=none;html=1;rounded=0;elbow=vertical;strokeColor=#ae4132;strokeWidth=3;fillColor=#fad9d5;" parent="1" edge="1">
          <mxGeometry width="50" height="50" relative="1" as="geometry">
            <mxPoint x="110" y="620" as="sourcePoint" />
            <mxPoint x="310" y="620" as="targetPoint" />
          </mxGeometry>
        </mxCell>
        <mxCell id="pDLpb-r-_teEG-7h8mRC-106" value="" style="endArrow=none;html=1;rounded=0;elbow=vertical;strokeColor=#ae4132;strokeWidth=3;fillColor=#fad9d5;" parent="1" edge="1">
          <mxGeometry width="50" height="50" relative="1" as="geometry">
            <mxPoint x="125" y="599.05" as="sourcePoint" />
            <mxPoint x="200" y="599" as="targetPoint" />
          </mxGeometry>
        </mxCell>
        <mxCell id="pDLpb-r-_teEG-7h8mRC-107" value="" style="endArrow=none;html=1;rounded=0;elbow=vertical;strokeColor=#ae4132;strokeWidth=3;fillColor=#fad9d5;" parent="1" edge="1">
          <mxGeometry width="50" height="50" relative="1" as="geometry">
            <mxPoint x="220" y="599" as="sourcePoint" />
            <mxPoint x="295" y="599.05" as="targetPoint" />
          </mxGeometry>
        </mxCell>
        <mxCell id="pDLpb-r-_teEG-7h8mRC-132" style="edgeStyle=elbowEdgeStyle;rounded=0;orthogonalLoop=1;jettySize=auto;elbow=vertical;html=1;exitX=0.5;exitY=0;exitDx=0;exitDy=0;entryX=0.25;entryY=1;entryDx=0;entryDy=0;endArrow=none;startFill=0;strokeWidth=3;fillColor=#b1ddf0;strokeColor=#10739e;" parent="1" source="pDLpb-r-_teEG-7h8mRC-122" target="pDLpb-r-_teEG-7h8mRC-56" edge="1">
          <mxGeometry relative="1" as="geometry" />
        </mxCell>
        <mxCell id="pDLpb-r-_teEG-7h8mRC-122" value="NAS" style="rounded=1;whiteSpace=wrap;html=1;fillColor=#b1ddf0;strokeColor=#10739e;strokeWidth=3;" parent="1" vertex="1">
          <mxGeometry x="1210" y="550" width="60" height="60" as="geometry" />
        </mxCell>
      </root>
    </mxGraphModel>
  </diagram>
</mxfile>
